<?xml version="1.0" encoding="UTF-8"?>
<svg width="46px" height="46px" viewBox="0 0 46 46" version="1.1" xmlns="http://www.w3.org/2000/svg" xmlns:xlink="http://www.w3.org/1999/xlink">
    <!-- Generator: Sketch 52.5 (67469) - http://www.bohemiancoding.com/sketch -->
    <title>nav-01</title>
    <desc>Created with Sketch.</desc>
    <g id="nav-01" stroke="none" stroke-width="1" fill="none" fill-rule="evenodd">
        <g id="Group-15" transform="translate(3.000000, 10.000000)" fill="#F69B8F">
            <path d="M19.0472242,0.446103177 C22.666228,-1.00336978 25.2416857,1.23734379 26.5434003,4.88481096 C28.583445,4.53923199 30.4737481,5.19214773 31.8342721,6.60151301 C32.4455937,5.95139547 33.159214,5.42766377 33.9519058,5.093744 C36.8098464,3.94834324 39.441939,5.62540397 39.9257577,8.84847591 C40.006806,9.38946324 40.0191609,9.94164341 39.974189,10.4928908 L0.503672216,27 C0.307476052,26.5504209 0.15872279,26.0565367 0.076686107,25.5113521 C-0.410592021,22.264029 1.47526329,18.6767233 4.28576098,17.501475 C5.03100988,17.2025329 5.6932337,17.0962009 6.31592178,17.1353758 C7.31024591,14.401058 9.24898029,12.0505613 11.6898187,10.9130888 C11.8790961,6.69338758 14.4523793,2.52358781 18.0634759,1.0158188 C18.1010349,0.999495909 18.1385939,0.98457212 18.176647,0.969181963 L19.0472242,0.446103177 Z" id="Combined-Shape"></path>
        </g>
    </g>
</svg>