<?xml version="1.0" encoding="UTF-8"?>
<svg width="398px" height="235px" viewBox="0 0 398 235" version="1.1" xmlns="http://www.w3.org/2000/svg" xmlns:xlink="http://www.w3.org/1999/xlink">
    <!-- Generator: Sketch 52.5 (67469) - http://www.bohemiancoding.com/sketch -->
    <title>spark02</title>
    <desc>Created with Sketch.</desc>
    <g id="spark02" stroke="none" stroke-width="1" fill="none" fill-rule="evenodd">
        <g id="Group-10" transform="translate(33.000000, 33.000000)" fill="#FFFFFF">
            <g id="Group-7" opacity="0.459751674" transform="translate(308.514706, 0.000000)">
                <path d="M9.58120205,9.58412098 L9.58120205,2.5 C9.58120205,1.11928813 10.7004902,1.4898051e-12 12.081202,1.48988964e-12 L12.4040921,1.48994896e-12 C13.7848039,1.4900335e-12 14.9040921,1.11928813 14.9040921,2.5 L14.9040921,9.58412098 L21.9852941,9.58412098 C23.366006,9.58412098 24.4852941,10.7034091 24.4852941,12.084121 L24.4852941,12.4086326 C24.4852941,13.7893445 23.366006,14.9086326 21.9852941,14.9086326 L14.9040921,14.9086326 L14.9040921,21.9927536 C14.9040921,23.3734655 13.7848039,24.4927536 12.4040921,24.4927536 L12.081202,24.4927536 C10.7004902,24.4927536 9.58120205,23.3734655 9.58120205,21.9927536 L9.58120205,14.9086326 L2.5,14.9086326 C1.11928813,14.9086326 -2.75000772e-16,13.7893445 -4.4408921e-16,12.4086326 L-4.4408921e-16,12.084121 C-6.13177648e-16,10.7034091 1.11928813,9.58412098 2.5,9.58412098 L9.58120205,9.58412098 Z" id="Combined-Shape"></path>
            </g>
            <g id="Group-7" transform="translate(0.000000, 151.855072)">
                <path d="M6.70684143,6.70888469 L6.70684143,1.86301151 C6.70684143,0.834098664 7.5409401,2.49571836e-12 8.56985294,2.49578136e-12 C9.59876579,2.49584436e-12 10.4328645,0.834098664 10.4328645,1.86301151 L10.4328645,6.70888469 L15.2761268,6.70888469 C16.3053531,6.70888469 17.1397059,7.54323746 17.1397059,8.57246377 C17.1397059,9.60169007 16.3053531,10.4360428 15.2761268,10.4360428 L10.4328645,10.4360428 L10.4328645,15.281916 C10.4328645,16.3108289 9.59876579,17.1449275 8.56985294,17.1449275 C7.5409401,17.1449275 6.70684143,16.3108289 6.70684143,15.281916 L6.70684143,10.4360428 L1.86357908,10.4360428 C0.834352774,10.4360428 1.2604387e-16,9.60169007 0,8.57246377 C-1.2604387e-16,7.54323746 0.834352774,6.70888469 1.86357908,6.70888469 L6.70684143,6.70888469 Z" id="Combined-Shape"></path>
            </g>
        </g>
    </g>
</svg>