<?xml version="1.0" encoding="UTF-8"?>
<svg width="568px" height="299px" viewBox="0 0 568 299" version="1.1" xmlns="http://www.w3.org/2000/svg" xmlns:xlink="http://www.w3.org/1999/xlink">
    <!-- Generator: Sketch 52.5 (67469) - http://www.bohemiancoding.com/sketch -->
    <title>spark01</title>
    <desc>Created with Sketch.</desc>
    <g id="spark01" stroke="none" stroke-width="1" fill="none" fill-rule="evenodd">
        <g id="Group-9" transform="translate(45.000000, 37.000000)" fill="#FFFFFF">
            <g id="Group-7" opacity="0.590518043" transform="translate(63.570332, 208.897297)">
                <path d="M6.69720894,6.69236193 L6.69720894,1.86033582 C6.69720894,0.832900716 7.53010966,4.67118937e-13 8.55754476,4.67181849e-13 C9.58497986,4.67244761e-13 10.4178806,0.832900716 10.4178806,1.86033582 L10.4178806,6.69236193 L15.2561001,6.69236193 C16.2827916,6.69236193 17.1150895,7.52465984 17.1150895,8.55135135 C17.1150895,9.57804286 16.2827916,10.4103408 15.2561001,10.4103408 L10.4178806,10.4103408 L10.4178806,15.2423669 C10.4178806,16.269802 9.58497986,17.1027027 8.55754476,17.1027027 C7.53010966,17.1027027 6.69720894,16.269802 6.69720894,15.2423669 L6.69720894,10.4103408 L1.85898942,10.4103408 C0.832297915,10.4103408 1.25733447e-16,9.57804286 0,8.55135135 C-1.25733447e-16,7.52465984 0.832297915,6.69236193 1.85898942,6.69236193 L6.69720894,6.69236193 Z" id="Combined-Shape"></path>
            </g>
            <g id="Group-7" opacity="0.569335938">
                <path d="M9.56744134,9.56051704 L9.56744134,2.5 C9.56744134,1.11928813 10.6867295,1.89170653e-12 12.0674413,1.89179108e-12 L12.3826865,1.89184899e-12 C13.7633984,1.89193353e-12 14.8826865,1.11928813 14.8826865,2.5 L14.8826865,9.56051704 L21.9501279,9.56051704 C23.3308398,9.56051704 24.4501279,10.6798052 24.4501279,12.060517 L24.4501279,12.3719154 C24.4501279,13.7526273 23.3308398,14.8719154 21.9501279,14.8719154 L14.8826865,14.8719154 L14.8826865,21.9324324 C14.8826865,23.3131443 13.7633984,24.4324324 12.3826865,24.4324324 L12.0674413,24.4324324 C10.6867295,24.4324324 9.56744134,23.3131443 9.56744134,21.9324324 L9.56744134,14.8719154 L2.5,14.8719154 C1.11928813,14.8719154 1.69088438e-16,13.7526273 0,12.3719154 L0,12.060517 C-1.69088438e-16,10.6798052 1.11928813,9.56051704 2.5,9.56051704 L9.56744134,9.56051704 Z" id="Combined-Shape"></path>
            </g>
            <g id="Group-7" opacity="0.35139974" transform="translate(453.549872, 184.464865)">
                <path d="M9.56744134,9.56051704 L9.56744134,2.5 C9.56744134,1.11928813 10.6867295,-5.5180561e-14 12.0674413,-5.50960168e-14 L12.3826865,-5.50381072e-14 C13.7633984,-5.4953563e-14 14.8826865,1.11928813 14.8826865,2.5 L14.8826865,9.56051704 L21.9501279,9.56051704 C23.3308398,9.56051704 24.4501279,10.6798052 24.4501279,12.060517 L24.4501279,12.3719154 C24.4501279,13.7526273 23.3308398,14.8719154 21.9501279,14.8719154 L14.8826865,14.8719154 L14.8826865,21.9324324 C14.8826865,23.3131443 13.7633984,24.4324324 12.3826865,24.4324324 L12.0674413,24.4324324 C10.6867295,24.4324324 9.56744134,23.3131443 9.56744134,21.9324324 L9.56744134,14.8719154 L2.5,14.8719154 C1.11928813,14.8719154 1.69088438e-16,13.7526273 0,12.3719154 L0,12.060517 C-1.69088438e-16,10.6798052 1.11928813,9.56051704 2.5,9.56051704 L9.56744134,9.56051704 Z" id="Combined-Shape"></path>
            </g>
        </g>
    </g>
</svg>